<svg width="100%" height="100%" viewBox="0 0 179 40" fill="none" xmlns="http://www.w3.org/2000/svg">
<path d="M108.92 28.2C107.96 28.2 107.107 28.0667 106.36 27.8C105.613 27.5333 104.9 27.0933 104.22 26.48C104.073 26.3733 103.96 26.2467 103.88 26.1C103.813 25.94 103.78 25.78 103.78 25.62C103.78 25.3667 103.873 25.14 104.06 24.94C104.247 24.74 104.48 24.64 104.76 24.64C104.973 24.64 105.173 24.7133 105.36 24.86C105.867 25.3267 106.393 25.68 106.94 25.92C107.5 26.16 108.153 26.28 108.9 26.28C109.433 26.28 109.92 26.1933 110.36 26.02C110.813 25.8467 111.173 25.6133 111.44 25.32C111.707 25.0267 111.84 24.6867 111.84 24.3C111.84 23.82 111.7 23.4267 111.42 23.12C111.153 22.8 110.76 22.54 110.24 22.34C109.733 22.1267 109.12 21.9467 108.4 21.8C107.733 21.68 107.133 21.5133 106.6 21.3C106.08 21.0867 105.633 20.82 105.26 20.5C104.887 20.1667 104.6 19.7733 104.4 19.32C104.2 18.8667 104.1 18.34 104.1 17.74C104.1 16.9267 104.313 16.2267 104.74 15.64C105.167 15.0533 105.747 14.6 106.48 14.28C107.213 13.96 108.04 13.8 108.96 13.8C109.8 13.8 110.587 13.9333 111.32 14.2C112.053 14.4533 112.647 14.8 113.1 15.24C113.42 15.52 113.58 15.82 113.58 16.14C113.58 16.38 113.48 16.6067 113.28 16.82C113.093 17.02 112.873 17.12 112.62 17.12C112.433 17.12 112.273 17.0667 112.14 16.96C111.927 16.7333 111.64 16.5333 111.28 16.36C110.92 16.1733 110.533 16.02 110.12 15.9C109.72 15.78 109.333 15.72 108.96 15.72C108.36 15.72 107.847 15.8067 107.42 15.98C106.993 16.14 106.667 16.3667 106.44 16.66C106.213 16.94 106.1 17.2733 106.1 17.66C106.1 18.1133 106.227 18.4867 106.48 18.78C106.747 19.0733 107.113 19.3133 107.58 19.5C108.047 19.6733 108.58 19.8333 109.18 19.98C109.913 20.14 110.567 20.32 111.14 20.52C111.727 20.72 112.22 20.98 112.62 21.3C113.02 21.6067 113.327 21.9933 113.54 22.46C113.753 22.9267 113.86 23.5067 113.86 24.2C113.86 25 113.633 25.7 113.18 26.3C112.727 26.9 112.127 27.3667 111.38 27.7C110.647 28.0333 109.827 28.2 108.92 28.2ZM117.399 14C117.666 14 117.899 14.1 118.099 14.3C118.313 14.4867 118.419 14.7267 118.419 15.02V26.98C118.406 27.2733 118.293 27.52 118.079 27.72C117.879 27.9067 117.639 28 117.359 28C117.053 28 116.799 27.9067 116.599 27.72C116.413 27.52 116.319 27.2733 116.319 26.98V15.02C116.319 14.7267 116.419 14.4867 116.619 14.3C116.819 14.1 117.079 14 117.399 14ZM126.419 14C126.739 14 126.993 14.1 127.179 14.3C127.366 14.4867 127.459 14.7267 127.459 15.02V26.98C127.459 27.2733 127.359 27.52 127.159 27.72C126.973 27.9067 126.719 28 126.399 28C126.119 28 125.879 27.9067 125.679 27.72C125.479 27.52 125.379 27.2733 125.379 26.98V15.02C125.379 14.7267 125.479 14.4867 125.679 14.3C125.893 14.1 126.139 14 126.419 14ZM117.319 19.96H126.439L126.419 21.88H117.299L117.319 19.96ZM146.461 13.96C146.741 13.96 146.981 14.0533 147.181 14.24C147.381 14.4267 147.481 14.6533 147.481 14.92C147.481 15.0667 147.447 15.22 147.381 15.38L142.321 27.34C142.214 27.5667 142.067 27.7333 141.881 27.84C141.707 27.9467 141.527 28 141.341 28C141.154 27.9867 140.974 27.9267 140.801 27.82C140.641 27.7133 140.514 27.56 140.421 27.36L135.361 15.38C135.334 15.3133 135.314 15.2467 135.301 15.18C135.287 15.1 135.281 15.02 135.281 14.94C135.281 14.6333 135.394 14.3933 135.621 14.22C135.847 14.0467 136.067 13.96 136.281 13.96C136.707 13.96 137.021 14.18 137.221 14.62L141.801 25.48H141.221L145.541 14.6C145.727 14.1733 146.034 13.96 146.461 13.96ZM153.948 28.2C152.842 28.2 151.882 27.9733 151.068 27.52C150.255 27.0533 149.622 26.42 149.168 25.62C148.728 24.8067 148.508 23.88 148.508 22.84C148.508 21.6667 148.742 20.6667 149.208 19.84C149.688 19 150.308 18.36 151.068 17.92C151.828 17.4667 152.635 17.24 153.488 17.24C154.142 17.24 154.762 17.3733 155.348 17.64C155.935 17.8933 156.455 18.2533 156.908 18.72C157.375 19.1733 157.742 19.7133 158.008 20.34C158.275 20.9533 158.415 21.6267 158.428 22.36C158.415 22.6267 158.308 22.8467 158.108 23.02C157.908 23.1933 157.675 23.28 157.408 23.28H149.628L149.148 21.58H156.668L156.288 21.94V21.44C156.262 20.9733 156.108 20.5667 155.828 20.22C155.548 19.86 155.202 19.5867 154.788 19.4C154.375 19.2 153.942 19.1 153.488 19.1C153.088 19.1 152.702 19.1667 152.328 19.3C151.968 19.42 151.642 19.62 151.348 19.9C151.068 20.18 150.842 20.5533 150.668 21.02C150.508 21.4733 150.428 22.04 150.428 22.72C150.428 23.4533 150.582 24.0933 150.888 24.64C151.195 25.1867 151.608 25.6133 152.128 25.92C152.648 26.2133 153.222 26.36 153.848 26.36C154.342 26.36 154.748 26.3133 155.068 26.22C155.388 26.1133 155.655 25.9867 155.868 25.84C156.082 25.6933 156.268 25.5533 156.428 25.42C156.628 25.3 156.828 25.24 157.028 25.24C157.268 25.24 157.468 25.3267 157.628 25.5C157.788 25.66 157.868 25.8533 157.868 26.08C157.868 26.3733 157.722 26.64 157.428 26.88C157.068 27.2267 156.568 27.5333 155.928 27.8C155.302 28.0667 154.642 28.2 153.948 28.2ZM161.689 28C161.396 28 161.156 27.9067 160.969 27.72C160.782 27.52 160.689 27.2733 160.689 26.98V18.5C160.689 18.2067 160.782 17.9667 160.969 17.78C161.156 17.58 161.396 17.48 161.689 17.48C161.969 17.48 162.202 17.58 162.389 17.78C162.589 17.9667 162.689 18.2067 162.689 18.5V20.74L162.489 19.88C162.596 19.5067 162.756 19.16 162.969 18.84C163.196 18.52 163.462 18.24 163.769 18C164.076 17.76 164.416 17.5733 164.789 17.44C165.176 17.3067 165.576 17.24 165.989 17.24C166.336 17.24 166.636 17.3333 166.889 17.52C167.142 17.7067 167.269 17.94 167.269 18.22C167.269 18.58 167.176 18.8467 166.989 19.02C166.802 19.18 166.596 19.26 166.369 19.26C166.169 19.26 165.976 19.22 165.789 19.14C165.602 19.0467 165.382 19 165.129 19C164.849 19 164.562 19.0733 164.269 19.22C163.976 19.3667 163.709 19.5867 163.469 19.88C163.229 20.16 163.036 20.4933 162.889 20.88C162.756 21.2667 162.689 21.7 162.689 22.18V26.98C162.689 27.2733 162.589 27.52 162.389 27.72C162.202 27.9067 161.969 28 161.689 28ZM170.208 28C169.928 28 169.688 27.9067 169.488 27.72C169.302 27.52 169.208 27.2733 169.208 26.98V14.22C169.208 13.9267 169.302 13.6867 169.488 13.5C169.688 13.3 169.928 13.2 170.208 13.2C170.502 13.2 170.742 13.3 170.928 13.5C171.115 13.6867 171.208 13.9267 171.208 14.22V26.98C171.208 27.2733 171.115 27.52 170.928 27.72C170.742 27.9067 170.502 28 170.208 28ZM176.728 17.44C176.982 17.44 177.202 17.5467 177.388 17.76C177.575 17.9733 177.668 18.1867 177.668 18.4C177.668 18.6667 177.542 18.9133 177.288 19.14L171.028 24.74L170.948 22.44L175.988 17.76C176.202 17.5467 176.448 17.44 176.728 17.44ZM176.968 27.98C176.688 27.98 176.448 27.8667 176.248 27.64L172.248 23.42L173.768 22.02L177.668 26.24C177.882 26.4667 177.988 26.72 177.988 27C177.988 27.2933 177.868 27.5333 177.628 27.72C177.402 27.8933 177.182 27.98 176.968 27.98Z" fill="white"/>
<path d="M68.5714 0H95.9999L72.3116 40H44.8831L68.5714 0Z" fill="#FF7A00"/>
<path d="M43.6363 0H63.5844L39.896 40H19.948L43.6363 0Z" fill="#FF9736"/>
<path d="M23.6883 0H38.6493L14.961 40H0L23.6883 0Z" fill="#FFBC7D"/>
</svg>
