<svg width="100%" height="100%" viewBox="0 0 31 28" fill="none" xmlns="http://www.w3.org/2000/svg">
<g clip-path="url(#clip0_18_1827)">
<path d="M5.66596 9.64599C7.06443 8.63099 8.22458 9.33099 9.77293 11.0054C9.94681 11.1944 10.1806 10.9732 10.314 10.8654C10.4459 10.7562 12.4889 9.03839 12.5894 8.95999C12.6883 8.87739 12.8082 8.72339 12.6508 8.55119C12.2717 8.11319 11.9004 7.66933 11.5371 7.21979C8.82713 3.90879 18.9507 1.66319 17.3963 1.62819C16.6049 1.60859 13.4302 1.57359 12.9551 1.62259C11.032 1.81159 8.61729 3.49019 7.40168 4.27279C5.81135 5.28919 5.21779 5.88559 5.12036 5.96819C4.67069 6.33499 5.04841 7.18199 4.23301 7.84979C3.37115 8.55399 2.83305 8.02059 2.33391 8.42939C2.0866 8.63379 1.39411 9.11819 1.19625 9.27919C0.996898 9.44299 0.960924 9.71879 1.16477 9.93859C1.16477 9.93859 3.05938 11.893 3.21826 12.0666C3.37565 12.2374 3.80433 12.3858 4.06814 12.166C4.33344 11.9476 5.01544 11.3918 5.12935 11.2938C5.24627 11.2014 5.05441 10.0884 5.66596 9.64599ZM14.2217 10.3698C14.0418 10.1752 13.8185 10.1696 13.6266 10.3292L11.4772 12.082C11.3942 12.1523 11.3436 12.2499 11.3361 12.3544C11.3285 12.4588 11.3646 12.5619 11.4367 12.642L23.8686 25.8566C24.1593 26.1688 24.663 26.201 24.9942 25.9308L26.4482 24.7926C26.6082 24.661 26.7062 24.4757 26.7207 24.277C26.7353 24.0783 26.6654 23.8822 26.5261 23.7314L14.2217 10.3698ZM30.798 4.74599C30.687 4.05439 30.3033 4.19859 30.104 4.49119C29.9046 4.78659 29.0233 6.03399 28.6605 6.59959C28.3008 7.15959 27.4134 8.26699 25.7617 7.17359C24.0409 6.03819 24.639 5.24579 24.9388 4.71239C25.24 4.17619 26.1649 2.67259 26.2983 2.48639C26.4317 2.29739 26.2758 1.74859 25.7422 1.97819C25.2071 2.20779 21.9605 3.41319 21.5108 5.14219C21.0506 6.90059 21.896 8.47278 20.2367 10.0338L18.2237 11.9938L20.2457 14.1862L22.7249 11.9882C23.3155 11.4338 24.5775 10.8948 25.7197 11.1384C28.1674 11.655 29.5029 10.7968 30.3078 9.37719C31.0303 8.10879 30.9104 5.43759 30.798 4.74599ZM5.0724 23.8742C4.92247 24.0153 4.83833 24.206 4.83833 24.4048C4.83833 24.6036 4.92247 24.7943 5.0724 24.9354L6.49785 26.2374C6.80962 26.53 7.30425 26.4068 7.61602 26.1142L14.9711 19.3606L12.7183 16.961L5.0724 23.8742Z" fill="currentColor"/>
</g>
<defs>
<clipPath id="clip0_18_1827">
<rect width="29.9779" height="28" fill="white" transform="translate(0.966919)"/>
</clipPath>
</defs>
</svg>
